# xmcd CD database file
#
# Track frame offsets:
#	150
#	17350
#	35912
#
# Disc length: 697 seconds
#
# Revision: 2
# Processed by: cddbd v1.5.1PL0 Copyright (c) Steve Scherf et al.
# Submitted via: CDex 1.51
#
DISCID=1b02b703
DTITLE=Dana Dawson - Show Me
DYEAR=1996
DGENRE=Misc
TTITLE0=Show Me
TTITLE1=Tell Me Lover
TTITLE2=3 Is Family (Radio Mix)
EXTD=YEAR: 1996
EXTT0=
EXTT1=
EXTT2=
PLAYORDER=
